<?xml version="1.0" standalone="no"?>
<!DOCTYPE svg PUBLIC "-//W3C//DTD SVG 20010904//EN"
 "http://www.w3.org/TR/2001/REC-SVG-20010904/DTD/svg10.dtd">
<svg version="1.0" xmlns="http://www.w3.org/2000/svg"
 width="200.000000pt" height="200.000000pt" viewBox="0 0 200.000000 200.000000"
 preserveAspectRatio="xMidYMid meet">
<metadata>
Created by potrace 1.14, written by Peter Selinger 2001-2017
</metadata>
<g transform="translate(0.000000,200.000000) scale(0.100000,-0.100000)"
fill="#000000" stroke="none">
<path d="M875 1950 c-11 -4 -23 -6 -27 -3 -5 2 -14 1 -20 -4 -7 -4 -20 -8 -28
-8 -29 -2 -85 -17 -97 -27 -7 -6 -13 -8 -13 -5 0 3 -13 1 -30 -4 -16 -6 -30
-15 -30 -21 0 -5 -5 -6 -11 -3 -5 4 -19 -1 -30 -11 -10 -9 -19 -13 -19 -9 0 5
-6 1 -13 -10 -8 -10 -19 -15 -26 -11 -6 4 -14 0 -17 -8 -3 -9 -10 -14 -14 -11
-5 3 -13 -3 -19 -12 -5 -10 -12 -17 -16 -15 -10 5 -64 -31 -59 -40 3 -4 -2 -8
-10 -8 -20 0 -159 -139 -156 -155 1 -4 -7 -13 -17 -22 -11 -8 -12 -12 -3 -8 8
4 4 -3 -10 -14 -14 -11 -21 -21 -17 -21 4 0 -1 -10 -12 -22 -11 -11 -18 -24
-16 -28 3 -5 -2 -11 -11 -14 -9 -3 -14 -13 -11 -20 3 -8 -1 -17 -9 -20 -9 -3
-14 -12 -12 -18 3 -7 -1 -19 -9 -26 -7 -8 -11 -18 -8 -23 4 -5 1 -9 -6 -9 -7
0 -9 -3 -6 -7 4 -3 2 -12 -5 -20 -6 -7 -8 -16 -5 -20 4 -3 2 -12 -4 -19 -6 -7
-13 -28 -14 -46 -2 -18 -8 -48 -14 -65 -10 -34 -8 -299 3 -343 3 -14 8 -34 10
-45 11 -54 19 -75 28 -75 5 0 7 -4 4 -9 -8 -12 19 -73 28 -64 4 4 4 0 0 -10
-4 -11 -1 -17 7 -17 7 0 10 -3 6 -6 -8 -8 38 -96 68 -128 13 -14 21 -26 17
-26 -4 0 2 -7 13 -16 11 -8 20 -18 20 -22 0 -4 3 -6 7 -5 5 2 7 -1 5 -5 -4
-13 85 -102 96 -95 6 3 7 1 3 -5 -8 -14 132 -114 147 -105 6 3 7 1 3 -5 -6
-11 6 -16 27 -13 4 0 7 -3 7 -8 0 -10 54 -34 76 -34 8 0 14 -4 14 -9 0 -5 4
-6 10 -3 5 3 10 2 10 -4 0 -6 7 -8 15 -5 8 4 15 1 15 -5 0 -6 9 -11 21 -11 11
0 28 -4 38 -9 9 -5 39 -13 66 -16 28 -4 61 -9 75 -11 75 -15 295 2 340 26 8 4
23 6 33 5 9 -2 17 0 17 4 0 4 6 8 13 8 16 0 130 45 137 54 3 3 15 9 28 13 12
4 22 12 22 17 0 6 4 8 8 5 12 -7 63 29 55 39 -5 4 -3 5 4 2 6 -4 26 5 45 20
52 43 58 50 50 58 -4 5 -2 5 4 2 11 -6 55 32 51 45 -1 3 2 10 7 15 5 5 6 2 2
-7 -5 -8 8 3 28 25 19 22 35 46 36 53 0 6 4 12 9 12 13 0 56 72 53 88 -2 6 1
12 6 12 10 0 38 60 34 73 -1 4 3 7 9 7 5 0 7 5 4 10 -3 5 -1 10 5 10 7 0 10 7
6 15 -3 8 0 15 6 15 6 0 8 3 5 7 -4 3 -2 12 4 20 6 7 8 13 4 13 -4 0 -3 6 3
13 6 7 14 28 17 47 3 18 8 37 11 41 7 12 16 128 15 204 -2 106 -4 125 -13 125
-5 0 -7 4 -3 9 3 5 1 12 -3 15 -5 3 -8 22 -5 42 3 26 0 34 -8 28 -7 -4 -9 -3
-6 3 6 10 -30 123 -42 133 -3 3 -8 14 -9 25 -2 11 -7 22 -10 25 -4 3 -14 14
-22 24 -13 18 -13 19 0 11 11 -6 10 -3 -2 12 -10 11 -18 24 -18 30 0 6 -10 18
-22 27 -13 9 -16 14 -8 11 8 -4 4 3 -9 14 -13 12 -19 21 -15 21 5 0 -5 13 -21
28 -17 15 -24 23 -15 17 13 -9 13 -8 1 8 -7 9 -20 17 -27 17 -8 0 -13 6 -12
13 2 6 -3 11 -9 9 -7 -1 -13 5 -13 13 0 16 -87 91 -101 87 -5 -1 -9 2 -9 7 0
8 -93 65 -172 105 -20 10 -42 15 -49 11 -8 -6 -10 -4 -4 5 6 10 4 12 -8 7 -10
-3 -17 -2 -17 2 0 5 -8 8 -17 7 -10 -2 -20 1 -23 5 -3 5 -24 11 -45 14 -22 4
-49 9 -60 12 -30 9 -267 12 -290 3z"/>
</g>
</svg>
